<svg width="2424" height="430" viewBox="0 0 2424 430" fill="none" xmlns="http://www.w3.org/2000/svg">
<path d="M709.12 211.579C709.12 191.059 704.433 175.099 695.06 163.699C685.94 152.299 671.12 146.599 650.6 146.599C646.293 146.599 641.733 146.852 636.92 147.359C632.36 147.612 627.8 148.372 623.24 149.639V263.259C627.293 266.046 632.613 268.706 639.2 271.239C646.04 273.519 653.26 274.659 660.86 274.659C677.58 274.659 689.74 268.959 697.34 257.559C705.193 246.159 709.12 230.832 709.12 211.579ZM756.24 210.819C756.24 226.019 754.213 239.952 750.16 252.619C746.36 265.286 740.786 276.179 733.44 285.299C726.093 294.419 716.846 301.512 705.7 306.579C694.806 311.646 682.393 314.179 668.46 314.179C659.086 314.179 650.473 313.039 642.62 310.759C634.766 308.479 628.306 305.946 623.24 303.159V380.299H577.26V117.719C586.633 115.186 598.16 112.779 611.84 110.499C625.52 108.219 639.96 107.079 655.16 107.079C670.866 107.079 684.926 109.486 697.34 114.299C709.753 119.112 720.266 126.079 728.88 135.199C737.746 144.066 744.46 154.959 749.02 167.879C753.833 180.546 756.24 194.859 756.24 210.819Z" fill="url(#paint0_linear_1822_95)"/>
<path d="M963.559 277.699C977.746 277.699 988.513 276.939 995.859 275.419V224.499C993.326 223.739 989.653 222.979 984.839 222.219C980.026 221.459 974.706 221.079 968.879 221.079C963.813 221.079 958.619 221.459 953.299 222.219C948.233 222.979 943.546 224.372 939.239 226.399C935.186 228.426 931.893 231.339 929.359 235.139C926.826 238.686 925.559 243.246 925.559 248.819C925.559 259.712 928.979 267.312 935.819 271.619C942.659 275.672 951.906 277.699 963.559 277.699ZM959.759 106.319C974.959 106.319 987.753 108.219 998.139 112.019C1008.53 115.819 1016.76 121.139 1022.84 127.979C1029.17 134.819 1033.61 143.179 1036.14 153.059C1038.93 162.686 1040.32 173.326 1040.32 184.979V305.439C1033.23 306.959 1022.46 308.732 1008.02 310.759C993.833 313.039 977.746 314.179 959.759 314.179C947.853 314.179 936.959 313.039 927.079 310.759C917.199 308.479 908.713 304.806 901.619 299.739C894.779 294.672 889.333 288.086 885.279 279.979C881.479 271.872 879.579 261.866 879.579 249.959C879.579 238.559 881.733 228.932 886.039 221.079C890.599 213.226 896.679 206.892 904.279 202.079C911.879 197.012 920.619 193.466 930.499 191.439C940.633 189.159 951.146 188.019 962.039 188.019C967.106 188.019 972.426 188.399 977.999 189.159C983.573 189.666 989.526 190.679 995.859 192.199V184.599C995.859 179.279 995.226 174.212 993.959 169.399C992.693 164.586 990.413 160.406 987.119 156.859C984.079 153.059 979.899 150.146 974.579 148.119C969.513 146.092 963.053 145.079 955.199 145.079C944.559 145.079 934.806 145.839 925.939 147.359C917.073 148.879 909.853 150.652 904.279 152.679L898.579 115.439C904.406 113.412 912.893 111.386 924.039 109.359C935.186 107.332 947.093 106.319 959.759 106.319Z" fill="url(#paint1_linear_1822_95)"/>
<path d="M1242.66 111.259C1222.14 186.752 1198.33 255.152 1171.22 316.459C1166.16 327.859 1160.96 337.612 1155.64 345.719C1150.32 353.826 1144.37 360.539 1137.78 365.859C1131.2 371.179 1123.85 374.979 1115.74 377.259C1107.64 379.792 1098.26 381.059 1087.62 381.059C1080.53 381.059 1073.44 380.299 1066.34 378.779C1059.5 377.259 1054.31 375.612 1050.76 373.839L1059.12 336.979C1068.24 340.526 1077.24 342.299 1086.1 342.299C1098.01 342.299 1107.26 339.386 1113.84 333.559C1120.68 327.986 1126.64 319.246 1131.7 307.339C1117.26 279.472 1103.33 249.072 1089.9 216.139C1076.73 183.206 1064.95 148.246 1054.56 111.259H1103.58C1106.12 121.899 1109.16 133.426 1112.7 145.839C1116.5 158.252 1120.56 170.919 1124.86 183.839C1129.17 196.506 1133.73 209.172 1138.54 221.839C1143.36 234.506 1148.17 246.286 1152.98 257.179C1161.09 234.632 1168.69 210.692 1175.78 185.359C1182.88 159.772 1189.34 135.072 1195.16 111.259H1242.66Z" fill="url(#paint2_linear_1822_95)"/>
<path d="M1302.15 205.499C1302.15 225.006 1306.33 239.319 1314.69 248.439C1323.31 257.306 1334.33 261.739 1347.75 261.739C1355.1 261.739 1361.94 260.726 1368.27 258.699C1374.86 256.672 1380.18 254.266 1384.23 251.479V148.499C1380.94 147.739 1376.89 147.106 1372.07 146.599C1367.26 145.839 1361.18 145.459 1353.83 145.459C1337.11 145.459 1324.32 151.032 1315.45 162.179C1306.59 173.072 1302.15 187.512 1302.15 205.499ZM1430.21 289.859C1430.21 321.526 1422.11 344.706 1405.89 359.399C1389.93 374.092 1365.36 381.439 1332.17 381.439C1320.01 381.439 1308.11 380.426 1296.45 378.399C1285.05 376.372 1274.67 373.712 1265.29 370.419L1273.65 331.279C1281.51 334.572 1290.37 337.232 1300.25 339.259C1310.39 341.286 1321.28 342.299 1332.93 342.299C1351.43 342.299 1364.6 338.499 1372.45 330.899C1380.31 323.299 1384.23 312.026 1384.23 297.079V289.479C1379.67 291.759 1373.59 294.039 1365.99 296.319C1358.65 298.599 1350.16 299.739 1340.53 299.739C1327.87 299.739 1316.21 297.712 1305.57 293.659C1295.19 289.606 1286.19 283.652 1278.59 275.799C1271.25 267.946 1265.42 258.192 1261.11 246.539C1257.06 234.632 1255.03 220.952 1255.03 205.499C1255.03 191.059 1257.19 177.759 1261.49 165.599C1266.05 153.439 1272.51 143.052 1280.87 134.439C1289.49 125.826 1299.87 119.112 1312.03 114.299C1324.19 109.486 1338 107.079 1353.45 107.079C1368.4 107.079 1382.59 108.219 1396.01 110.499C1409.44 112.779 1420.84 115.186 1430.21 117.719V289.859Z" fill="url(#paint3_linear_1822_95)"/>
<path d="M1590.55 152.679C1586.75 151.412 1581.43 150.146 1574.59 148.879C1568 147.359 1560.28 146.599 1551.41 146.599C1546.34 146.599 1540.9 147.106 1535.07 148.119C1529.5 149.132 1525.57 150.019 1523.29 150.779V309.999H1477.31V120.759C1486.18 117.466 1497.2 114.426 1510.37 111.639C1523.8 108.599 1538.62 107.079 1554.83 107.079C1557.87 107.079 1561.42 107.332 1565.47 107.839C1569.52 108.092 1573.58 108.599 1577.63 109.359C1581.68 109.866 1585.61 110.626 1589.41 111.639C1593.21 112.399 1596.25 113.159 1598.53 113.919L1590.55 152.679Z" fill="url(#paint4_linear_1822_95)"/>
<path d="M1798.91 210.439C1798.91 226.146 1796.63 240.459 1792.07 253.379C1787.51 266.299 1781.05 277.319 1772.69 286.439C1764.33 295.559 1754.2 302.652 1742.29 307.719C1730.64 312.786 1717.72 315.319 1703.53 315.319C1689.35 315.319 1676.43 312.786 1664.77 307.719C1653.12 302.652 1643.11 295.559 1634.75 286.439C1626.39 277.319 1619.81 266.299 1614.99 253.379C1610.43 240.459 1608.15 226.146 1608.15 210.439C1608.15 194.732 1610.43 180.546 1614.99 167.879C1619.81 154.959 1626.39 143.939 1634.75 134.819C1643.37 125.699 1653.5 118.732 1665.15 113.919C1676.81 108.852 1689.6 106.319 1703.53 106.319C1717.47 106.319 1730.26 108.852 1741.91 113.919C1753.82 118.732 1763.95 125.699 1772.31 134.819C1780.67 143.939 1787.13 154.959 1791.69 167.879C1796.51 180.546 1798.91 194.732 1798.91 210.439ZM1751.79 210.439C1751.79 190.679 1747.49 175.099 1738.87 163.699C1730.51 152.046 1718.73 146.219 1703.53 146.219C1688.33 146.219 1676.43 152.046 1667.81 163.699C1659.45 175.099 1655.27 190.679 1655.27 210.439C1655.27 230.452 1659.45 246.286 1667.81 257.939C1676.43 269.592 1688.33 275.419 1703.53 275.419C1718.73 275.419 1730.51 269.592 1738.87 257.939C1747.49 246.286 1751.79 230.452 1751.79 210.439Z" fill="url(#paint5_linear_1822_95)"/>
<path d="M1997.9 303.919C1989.03 306.199 1977.51 308.479 1963.32 310.759C1949.13 313.292 1933.55 314.559 1916.58 314.559C1900.62 314.559 1887.19 312.279 1876.3 307.719C1865.66 303.159 1857.05 296.826 1850.46 288.719C1844.13 280.612 1839.57 270.986 1836.78 259.839C1833.99 248.439 1832.6 236.026 1832.6 222.599V111.259H1878.58V215.379C1878.58 236.659 1881.62 251.859 1887.7 260.979C1894.03 270.099 1904.93 274.659 1920.38 274.659C1925.95 274.659 1931.78 274.406 1937.86 273.899C1944.19 273.392 1948.88 272.759 1951.92 271.999V111.259H1997.9V303.919Z" fill="url(#paint6_linear_1822_95)"/>
<path d="M2045.02 117.719C2053.89 115.186 2065.42 112.779 2079.6 110.499C2093.79 108.219 2109.5 107.079 2126.72 107.079C2142.94 107.079 2156.49 109.359 2167.38 113.919C2178.28 118.226 2186.89 124.432 2193.22 132.539C2199.81 140.392 2204.37 150.019 2206.9 161.419C2209.69 172.566 2211.08 184.852 2211.08 198.279V309.999H2165.1V205.499C2165.1 194.859 2164.34 185.866 2162.82 178.519C2161.56 170.919 2159.28 164.839 2155.98 160.279C2152.94 155.466 2148.64 152.046 2143.06 150.019C2137.74 147.739 2131.16 146.599 2123.3 146.599C2117.48 146.599 2111.4 146.979 2105.06 147.739C2098.73 148.499 2094.04 149.132 2091 149.639V309.999H2045.02V117.719Z" fill="url(#paint7_linear_1822_95)"/>
<path d="M2292.01 210.059C2292.01 230.326 2296.82 246.286 2306.45 257.939C2316.08 269.339 2329.38 275.039 2346.35 275.039C2353.7 275.039 2359.9 274.786 2364.97 274.279C2370.29 273.519 2374.6 272.759 2377.89 271.999V157.999C2373.84 155.212 2368.39 152.679 2361.55 150.399C2354.96 147.866 2347.87 146.599 2340.27 146.599C2323.55 146.599 2311.26 152.299 2303.41 163.699C2295.81 175.099 2292.01 190.552 2292.01 210.059ZM2423.87 303.919C2414.75 306.706 2403.22 309.239 2389.29 311.519C2375.61 313.799 2361.17 314.939 2345.97 314.939C2330.26 314.939 2316.2 312.532 2303.79 307.719C2291.38 302.906 2280.74 296.066 2271.87 287.199C2263.26 278.079 2256.54 267.186 2251.73 254.519C2247.17 241.599 2244.89 227.159 2244.89 211.199C2244.89 195.492 2246.79 181.306 2250.59 168.639C2254.64 155.719 2260.47 144.699 2268.07 135.579C2275.67 126.459 2284.92 119.492 2295.81 114.679C2306.7 109.612 2319.24 107.079 2333.43 107.079C2343.06 107.079 2351.54 108.219 2358.89 110.499C2366.24 112.779 2372.57 115.312 2377.89 118.099V22.7191L2423.87 15.1191V303.919Z" fill="url(#paint8_linear_1822_95)"/>
<path d="M791.467 314.179V22.7191L837.447 15.1191V314.179H791.467Z" fill="url(#paint9_linear_1822_95)"/>
<path fill-rule="evenodd" clip-rule="evenodd" d="M429.239 215C429.239 333.741 333.151 430 214.62 430C96.0885 430 0 333.741 0 215C0 96.2588 96.0885 0 214.62 0C333.151 0 429.239 96.2588 429.239 215ZM213.888 45.8496C170.032 45.8496 134.479 81.4654 134.479 125.4V177C134.479 220.934 170.032 256.55 213.888 256.55C220.044 256.55 226.036 255.848 231.789 254.52C235.247 253.722 236.218 249.455 233.654 247.002L233.22 246.587L187.474 202.816C180.38 195.913 175.972 186.255 175.972 175.566V126.833C175.972 105.855 192.948 88.8496 213.888 88.8496C234.829 88.8496 251.804 105.855 251.804 126.833V145.066C251.804 147.275 253.595 149.066 255.804 149.066H289.298C291.507 149.066 293.298 147.275 293.298 145.066V125.4C293.298 81.4654 257.745 45.8496 213.888 45.8496ZM293.313 300.282C293.313 344.216 257.761 379.832 213.904 379.832C170.048 379.832 134.495 344.216 134.495 300.282V280.632C134.495 278.423 136.286 276.632 138.495 276.632H171.988C174.197 276.632 175.988 278.423 175.988 280.632V298.849C175.988 319.826 192.964 336.832 213.904 336.832C234.845 336.832 251.82 319.826 251.82 298.849V250.115C251.82 239.426 247.413 229.768 240.319 222.866L194.572 179.095L194.138 178.68C191.575 176.226 192.546 171.96 196.003 171.162C201.756 169.834 207.748 169.132 213.904 169.132C257.761 169.132 293.313 204.748 293.313 248.682V300.282Z" fill="url(#paint10_linear_1822_95)"/>
<defs>
<linearGradient id="paint0_linear_1822_95" x1="1500.56" y1="15.1191" x2="1500.56" y2="381.439" gradientUnits="userSpaceOnUse">
<stop stop-color="#F4A52E"/>
<stop offset="1" stop-color="#DB8F1C"/>
</linearGradient>
<linearGradient id="paint1_linear_1822_95" x1="1500.56" y1="15.1191" x2="1500.56" y2="381.439" gradientUnits="userSpaceOnUse">
<stop stop-color="#F4A52E"/>
<stop offset="1" stop-color="#DB8F1C"/>
</linearGradient>
<linearGradient id="paint2_linear_1822_95" x1="1500.56" y1="15.1191" x2="1500.56" y2="381.439" gradientUnits="userSpaceOnUse">
<stop stop-color="#F4A52E"/>
<stop offset="1" stop-color="#DB8F1C"/>
</linearGradient>
<linearGradient id="paint3_linear_1822_95" x1="1500.56" y1="15.1191" x2="1500.56" y2="381.439" gradientUnits="userSpaceOnUse">
<stop stop-color="#F4A52E"/>
<stop offset="1" stop-color="#DB8F1C"/>
</linearGradient>
<linearGradient id="paint4_linear_1822_95" x1="1500.56" y1="15.1191" x2="1500.56" y2="381.439" gradientUnits="userSpaceOnUse">
<stop stop-color="#F4A52E"/>
<stop offset="1" stop-color="#DB8F1C"/>
</linearGradient>
<linearGradient id="paint5_linear_1822_95" x1="1500.56" y1="15.1191" x2="1500.56" y2="381.439" gradientUnits="userSpaceOnUse">
<stop stop-color="#F4A52E"/>
<stop offset="1" stop-color="#DB8F1C"/>
</linearGradient>
<linearGradient id="paint6_linear_1822_95" x1="1500.56" y1="15.1191" x2="1500.56" y2="381.439" gradientUnits="userSpaceOnUse">
<stop stop-color="#F4A52E"/>
<stop offset="1" stop-color="#DB8F1C"/>
</linearGradient>
<linearGradient id="paint7_linear_1822_95" x1="1500.56" y1="15.1191" x2="1500.56" y2="381.439" gradientUnits="userSpaceOnUse">
<stop stop-color="#F4A52E"/>
<stop offset="1" stop-color="#DB8F1C"/>
</linearGradient>
<linearGradient id="paint8_linear_1822_95" x1="1500.56" y1="15.1191" x2="1500.56" y2="381.439" gradientUnits="userSpaceOnUse">
<stop stop-color="#F4A52E"/>
<stop offset="1" stop-color="#DB8F1C"/>
</linearGradient>
<linearGradient id="paint9_linear_1822_95" x1="1500.56" y1="15.1191" x2="1500.56" y2="381.439" gradientUnits="userSpaceOnUse">
<stop stop-color="#F4A52E"/>
<stop offset="1" stop-color="#DB8F1C"/>
</linearGradient>
<linearGradient id="paint10_linear_1822_95" x1="214.62" y1="0" x2="214.62" y2="430" gradientUnits="userSpaceOnUse">
<stop stop-color="#F4A52E"/>
<stop offset="1" stop-color="#DB8F1C"/>
</linearGradient>
</defs>
</svg>
